<svg xmlns="http://www.w3.org/2000/svg" width="200.312" height="70.53" viewBox="128 32 200.312 70.53"><g data-name="BC_LogoHorizontal2"><path d="M160.364 32.06c-2.593.243-4.986.717-7.726 1.54-3.679 1.095-8.106 3.457-11.331 6.039-3.267 2.624-6.23 5.987-8.253 9.391-2.814 4.754-4.427 9.645-4.943 15.073-.148 1.57-.148 5.112 0 6.587.716 7.104 3.467 13.629 8.084 19.205 1.107 1.338 3.69 3.868 5.07 4.964 5.06 4.027 10.793 6.482 17.465 7.473 1.813.264 7.252.264 9.065 0 6.092-.906 11.088-2.867 15.863-6.23 7.346-5.164 12.553-13.29 14.166-22.092.421-2.297.685-6.334.537-8.073l-.084-.938-.137 1.106c-.98 8.454-4.427 15.621-10.224 21.292-1.665 1.633-2.54 2.371-4.153 3.53-.548.39-1.054.749-1.107.802-.063.042.18-.517.548-1.244 2.635-5.333 2.762-11.247.338-16.222-1.423-2.93-3.837-5.754-6.504-7.61-.421-.295-.78-.548-.79-.58-.01-.02.38-.347.875-.716 3.657-2.75 6.43-6.756 7.43-10.74.412-1.666.507-2.593.443-4.565-.084-2.698-.569-4.71-1.655-6.977-1.317-2.74-3.678-5.47-6.144-7.104-2.878-1.918-5.713-3.004-9.192-3.542a26.204 26.204 0 0 1-1.633-.284c-.633-.137-4.743-.2-6.008-.085Zm4.374 7.579c2.382.422 4.743 1.138 6.208 1.876 2.92 1.465 4.88 3.91 5.67 7.062.201.77.233 1.223.233 2.667 0 1.517-.032 1.876-.274 2.845-.928 3.721-2.962 5.956-5.977 6.588-.759.148-8.19.654-8.295.548-.031-.031-.095-3.436-.126-7.578l-.074-7.515-4.206.02c-2.308.011-4.216.043-4.247.064-.021.032.01 11.204.073 24.843.053 13.64.095 24.822.064 24.844-.043.042-2.562-1.054-3.468-1.508-2.477-1.254-5.291-3.33-7.336-5.417-3.868-3.953-6.503-8.928-7.642-14.461-.548-2.678-.727-4.46-.727-7.252.032-8.812 2.55-15.347 7.947-20.606 2.108-2.056 4.111-3.457 6.757-4.743 2.614-1.265 5.206-2.056 7.947-2.414 1.75-.232 5.818-.158 7.473.137Zm2.477 31.483c3.215.18 3.942.306 5.112.865 1.602.77 2.73 1.95 3.594 3.763 1.834 3.836 1.497 8.442-.833 11.615-1.918 2.593-5.238 4.3-9.56 4.922-1.085.158-3.003.253-3.088.169-.02-.032-.074-4.912-.116-10.846l-.063-10.783 1.075.064c.6.031 2.34.137 3.879.231Z" fill="#fafafa" fill-rule="evenodd" data-name="Path 32"/><path d="M322.24 53.415c-1.359.327-2.455 1.149-2.824 2.108-.443 1.202-.2 2.287.738 3.215.716.717 1.423 1.096 3.383 1.781 1.623.57 2.256.886 2.667 1.37.664.79.41 2.056-.548 2.688-.864.57-2.846.727-4.048.316-.516-.179-.537-.2-.716-1.054a17.603 17.603 0 0 0-.222-.927l-.105-.4-.654.03-.653.032-.032 1.297-.031 1.286.495.21c2.635 1.128 6.113.875 7.705-.558.664-.6.928-1.244.917-2.192-.01-.991-.274-1.592-.991-2.235-.695-.622-1.497-1.022-3.194-1.591-.8-.275-1.591-.56-1.76-.643-1.16-.601-1.665-1.771-1.19-2.762.463-.98 2.329-1.444 3.92-.97.411.116.411.127.643 1.033.126.496.253.97.274 1.033.021.095.253.137.664.137h.622l.074-.77c.042-.41.053-.969.031-1.232-.031-.433-.073-.496-.463-.707-1.107-.611-3.3-.843-4.701-.495Z" fill="#fafafa" fill-rule="evenodd" data-name="Path 33"/><path d="M240.996 53.731c-2.245.59-4.026 2.35-4.584 4.522-.359 1.412-.137 3.352.537 4.743.685 1.412 2.456 2.762 4.153 3.152.906.22 2.688.21 3.52 0a6.391 6.391 0 0 0 3.721-2.593c.685-1.012.98-1.93 1.054-3.247.169-3.193-1.686-5.744-4.775-6.535-.98-.253-2.75-.274-3.626-.042Zm3.479 1.107c1.096.527 1.981 1.697 2.382 3.151.263.97.263 3.184 0 4.048-.6 1.992-1.792 3.14-3.426 3.32-2.36.264-4.11-1.18-4.711-3.868-.211-.938-.158-3.046.095-3.826.495-1.529 1.38-2.54 2.603-2.983.76-.274 2.319-.19 3.057.158Z" fill="#fafafa" fill-rule="evenodd" data-name="Path 34"/><path d="m290.989 53.636-.98.043v.358c0 .358 0 .358.61.421 1.466.159 1.371.106 1.434.717.032.306.106 2.614.159 5.133.073 3.405.063 4.606-.032 4.66-.063.041-.285.083-.496.083-.21 0-.6.032-.874.064-.464.063-.485.084-.485.421v.359h11.036l.073-.485c.032-.274.064-1.012.064-1.634v-1.149h-1.244l-.18 1.023a24.85 24.85 0 0 1-.231 1.159c-.043.105-.696.137-2.772.137h-2.71l-.094-2.382c-.053-1.307-.074-2.403-.053-2.424.021-.021.748-.043 1.602-.043h1.56l.116.601c.222 1.18.169 1.086.685 1.086h.475l-.021-2.14-.032-2.129-.495-.031c-.285-.022-.507-.022-.517 0 0 .02-.063.41-.127.874l-.126.833-1.528-.032c-.844-.01-1.55-.042-1.57-.073-.022-.021-.064-1.033-.096-2.256l-.052-2.213h5.09l.053.231c.032.137.148.643.243 1.139l.19.896.621.031.612.032-.074-1.602c-.042-.886-.095-1.644-.127-1.697-.052-.074-7.536-.084-9.707-.01Z" fill="#fafafa" fill-rule="evenodd" data-name="Path 35"/><path d="m304.048 53.953.032.4.96.095.958.084.064 1.128c.042.611.105 2.951.137 5.196l.073 4.069-.727.074c-.885.084-1.254.19-1.244.348.01.073.021.22.032.337.01.21.063.21 2.993.19l2.973-.032v-.738l-.843-.084c-.464-.053-.896-.106-.96-.127-.084-.02-.147-.643-.19-1.865-.042-1.002-.094-2.045-.126-2.33l-.063-.495h1.012c1.402 0 1.992.147 2.477.611.358.348.463.59 1.012 2.288.326 1.043.674 2.034.758 2.192.254.485.865.706 2.056.706 1.275 0 1.56-.095 1.56-.516 0-.4-.053-.422-.896-.506-.812-.074-.727.042-1.423-1.834-.79-2.119-1.16-2.614-2.277-3.036l-.484-.19.505-.126c2.066-.527 3.226-2.077 2.751-3.71-.316-1.075-1.212-1.803-2.75-2.235-.675-.19-1.14-.221-4.575-.263l-3.826-.043.031.412Zm7.547.716c1.36.411 1.971 1.845 1.35 3.183-.464.991-1.36 1.392-3.342 1.476l-1.328.063-.063-.41c-.042-.233-.074-1.318-.074-2.435v-2.024l.611-.042c.96-.074 2.246.01 2.846.19Z" fill="#fafafa" fill-rule="evenodd" data-name="Path 36"/><path d="m253.276 53.773-1.476.053.032.316c.02.169.063.338.084.359.021.02.39.073.833.116.443.042.822.094.843.115.021.032.074 1.655.106 3.626.073 3.753.168 4.575.58 5.46.737 1.57 2.497 2.498 4.742 2.498 2.056 0 3.71-.811 4.448-2.182.57-1.043.633-1.58.622-5.038-.01-1.739-.042-3.425-.074-3.752l-.063-.59.453-.064c.253-.042.696-.095.97-.137l.506-.063-.032-.39-.031-.38-1.845-.031c-1.012-.01-2.182.01-2.582.053l-.738.084.032.316c.02.169.052.327.063.348.02.01.506.084 1.075.158l1.044.127.073 3.004c.064 2.909 0 4.268-.232 5.08-.2.696-.748 1.38-1.37 1.718-.516.274-.696.316-1.686.348-1.286.053-1.782-.063-2.488-.538-.632-.421-1.149-1.37-1.296-2.392-.053-.38-.137-2.161-.18-3.963l-.073-3.278.727-.074c1.518-.148 1.518-.148 1.518-.538 0-.326-.021-.348-.485-.41-.516-.064-1.655-.054-4.1.041Z" fill="#fafafa" fill-rule="evenodd" data-name="Path 37"/><path d="M267.843 53.742c-.042.031-.074.221-.074.41v.338l.885.074c.833.074.896.095 1.002.358.063.148.61 1.697 1.222 3.436.622 1.74 1.328 3.732 1.57 4.427.254.696.623 1.729.812 2.288l.359 1.032h.442c.527 0 .296.538 2.309-5.26.78-2.234 1.433-4.078 1.465-4.1.074-.073.063-.094.495.981.211.516.801 1.94 1.307 3.162a369.25 369.25 0 0 1 1.508 3.69l.6 1.475.443.031c.4.032.453 0 .559-.263.137-.348 2.708-9.096 3.046-10.319l.232-.864.643-.064c1.085-.126 1.127-.147 1.127-.548v-.358l-2.445.021-2.456.032.021.305c.032.4.116.443 1.096.527.538.053.833.127.833.2 0 .106-1.55 5.323-2.287 7.716l-.2.632-.116-.316c-.928-2.382-2.71-6.883-2.92-7.357-.158-.337-.253-.653-.221-.695.02-.053.421-.127.864-.159 1.16-.105 1.19-.126 1.19-.548v-.358h-5.807l.032.39.031.4 1.033.095 1.044.095-.074.274c-.053.211-2.16 5.85-2.898 7.758-.106.284-.211.032-1.487-3.795-.748-2.245-1.338-4.12-1.306-4.152.031-.022.442-.106.927-.159l.864-.116.032-.4.032-.39h-2.836c-1.56 0-2.867.032-2.898.074Z" fill="#fafafa" fill-rule="evenodd" data-name="Path 38"/><path d="m222.635 53.847-1.138.042v.348c0 .4-.032.39 1.38.538l.601.063.074 3.394c.095 4.743.053 6.967-.158 6.999-.084.01-.527.052-.97.084l-.822.074v.348c0 .2.043.39.106.421.053.032 1.402.032 2.993-.01l2.888-.074.043-.306c.031-.169.01-.327-.022-.348-.042-.031-.463-.095-.938-.147-.474-.053-.896-.127-.927-.158-.032-.032-.085-1.086-.116-2.34l-.053-2.277 1.307.042c1.138.032 1.36.063 1.739.285.59.327.801.738 1.465 2.867.664 2.118.822 2.34 1.729 2.53.57.115 1.981.073 2.361-.074.116-.043.18-.18.18-.411 0-.317-.032-.348-.39-.412a6.84 6.84 0 0 0-.792-.063c-.474 0-.505-.052-1.117-1.813-.242-.685-.537-1.433-.653-1.665-.295-.58-.98-1.223-1.455-1.38-.611-.19-.611-.222-.042-.37.748-.2 1.328-.506 1.887-1.022.674-.622.917-1.139.917-1.982 0-.917-.4-1.665-1.212-2.234-1.318-.928-3.089-1.117-8.865-.949Zm6.61 1.18c.874.39 1.222.823 1.37 1.677a2.267 2.267 0 0 1-.633 1.97c-.643.644-1.202.812-2.92.865l-1.454.053v-.823c0-.463-.032-1.56-.074-2.455l-.063-1.624 1.623.053c1.391.042 1.697.074 2.15.285Z" fill="#fafafa" fill-rule="evenodd" data-name="Path 39"/><path d="M207.415 54.026a.97.97 0 0 0-.02.4c.03.222.094.254.927.328.495.042.948.094 1.012.116.126.052.305 9.222.19 9.94l-.064.431-.6.063c-1.413.158-1.392.158-1.36.517l.031.337h3.795c4.153 0 4.437-.042 5.797-.674 1.56-.717 2.319-2.035 1.95-3.363-.253-.98-1.476-1.855-3.004-2.16-.4-.085-.664-.18-.58-.211 1.286-.432 1.539-.57 2.087-1.065.548-.506.79-1.064.79-1.802.011-1.328-.78-2.161-2.56-2.751-.507-.158-1.086-.19-4.46-.232-3.372-.032-3.878-.021-3.93.126Zm7.494.96c1.002.305 1.423.895 1.423 1.981 0 1.708-.8 2.256-3.446 2.361l-1.402.063v-4.553l.348-.042c.622-.095 2.54.02 3.077.19Zm.412 5.617c1.233.454 1.696 1.065 1.696 2.235-.01 1.117-.463 1.676-1.696 2.13-.496.178-.95.23-2.172.273l-1.56.042v-1.676c0-.927-.031-2.055-.074-2.508l-.063-.822 1.623.052c1.297.043 1.75.095 2.246.274Z" fill="#fafafa" fill-rule="evenodd" data-name="Path 40"/><path d="m289.545 72.103-.632.063-1.297 3.953c-.706 2.171-1.296 3.963-1.296 3.984 0 .021.263.021.59 0l.6-.032.38-1.106.38-1.107 1.55-.032 1.538-.031.221.59c.127.316.317.843.443 1.16l.21.579h.633c.611 0 .633-.01.57-.242a256.525 256.525 0 0 0-1.908-5.07 45.267 45.267 0 0 1-.633-1.645c-.327-.885-.506-1.19-.674-1.138-.032.01-.338.042-.675.074Zm.78 2.782c.316.875.59 1.666.611 1.73.032.104-.242.136-1.138.136-.938 0-1.17-.032-1.138-.147.137-.59.99-3.331 1.033-3.331.031 0 .316.727.632 1.612Z" fill="#fafafa" fill-rule="evenodd" data-name="Path 41"/><path d="M300.423 72.082c-.17.042-.18.274-.127 2.804a148.3 148.3 0 0 0 .105 3.941l.064 1.192h5.122l.074-.422c.042-.221.032-.474-.01-.538-.053-.084-.612-.116-2.035-.084l-1.96.042-.032-1.686a209.44 209.44 0 0 0-.105-3.478l-.074-1.792-.422-.021c-.232 0-.506.01-.6.042Z" fill="#fafafa" fill-rule="evenodd" data-name="Path 42"/><path d="M229.476 72.219c-1.117.19-2.045.938-2.582 2.087-.264.558-.285.706-.285 1.97 0 1.181.042 1.455.243 1.961.316.801.948 1.497 1.686 1.855.527.264.717.295 1.602.295 1.096-.01 1.634-.179 2.298-.727.348-.295.78-.97.917-1.412.063-.222.042-.232-.57-.232h-.632l-.242.443c-.348.653-.98.948-1.845.906-.875-.053-1.433-.432-1.865-1.286-.274-.516-.327-.759-.359-1.591-.063-1.297.137-2.003.749-2.625.632-.664 1.454-.854 2.319-.548.505.19.78.432 1.032.927.2.39.222.401.78.401.654 0 .707-.095.433-.748-.527-1.255-2.045-1.95-3.679-1.676Z" fill="#fafafa" fill-rule="evenodd" data-name="Path 43"/><path d="m267.168 72.187-.453.042V74c0 .97.031 2.772.074 4.005l.063 2.235.537-.032.538-.031.032-3.89c.02-3.73-.011-4.226-.285-4.153-.032.011-.263.032-.506.053Z" fill="#fafafa" fill-rule="evenodd" data-name="Path 44"/><path d="M274.82 72.156c-.02.031-.032.263-.01.527l.042.484h2.508v1.56c0 .865.032 2.435.074 3.479l.063 1.918h1.15l-.032-3.478-.043-3.479H281.05v-1.054h-3.088c-1.707 0-3.12.021-3.14.043Z" fill="#fafafa" fill-rule="evenodd" data-name="Path 45"/><path d="M242.504 72.345c-.063.074-.664 1.824-1.35 3.88-.684 2.054-1.264 3.804-1.296 3.867-.031.106.116.137.538.137h.58l.316-.874c.168-.475.348-.97.38-1.107.073-.232.115-.232 1.633-.232h1.56l.411 1.075.411 1.086.653.031.654.032-.242-.717c-.37-1.064-2.562-6.84-2.699-7.093-.094-.18-.221-.211-.78-.211-.41 0-.706.053-.77.126Zm.812 1.191c0 .085.263.854.58 1.708.315.854.579 1.591.579 1.634 0 .105-2.319.115-2.319 0-.021-.18 1.012-3.5 1.086-3.5.042 0 .074.074.074.158Z" fill="#fafafa" fill-rule="evenodd" data-name="Path 46"/><path d="M253.824 72.293c-.021.052-.01 1.855.01 4.005l.043 3.931H255.12v-3.14l1.191-.064c1.466-.084 1.95-.21 2.446-.622.537-.432.79-1.022.79-1.844 0-1.044-.41-1.687-1.37-2.119-.422-.19-.685-.221-2.392-.221-1.055 0-1.94.031-1.961.074Zm3.826 1.138c.411.21.632.664.632 1.275 0 .411-.052.538-.358.844l-.358.358H255.152l-.074-.643c-.031-.358-.063-.96-.063-1.318v-.674h1.16c.843 0 1.254.042 1.475.158Z" fill="#fafafa" fill-rule="evenodd" data-name="Path 47"/></g></svg>